<?xml version="1.0" standalone="no"?>
<!DOCTYPE svg PUBLIC "-//W3C//DTD SVG 20010904//EN"
 "http://www.w3.org/TR/2001/REC-SVG-20010904/DTD/svg10.dtd">
<svg version="1.0" xmlns="http://www.w3.org/2000/svg"
 width="1024.000000pt" height="1024.000000pt" viewBox="0 0 1024.000000 1024.000000"
 preserveAspectRatio="xMidYMid meet">

<g transform="translate(0.000000,1024.000000) scale(0.100000,-0.100000)"
fill="#000000" stroke="none">
<path d="M4945 8184 c-16 -2 -79 -9 -140 -15 -264 -26 -526 -90 -795 -192
-410 -157 -847 -459 -1146 -795 -308 -345 -558 -800 -670 -1217 -97 -362 -131
-635 -121 -959 23 -745 343 -1472 897 -2040 145 -149 307 -288 435 -373 466
-311 853 -455 1435 -535 118 -16 460 -16 595 1 279 34 608 118 855 218 157 64
399 194 563 303 510 338 926 862 1145 1445 143 380 211 785 199 1175 -14 425
-111 825 -296 1220 -86 184 -215 414 -245 439 -22 18 -59 2 -121 -53 l-48 -42
75 -115 c204 -308 344 -671 418 -1082 99 -551 -4 -1216 -270 -1747 -95 -190
-250 -424 -365 -553 -286 -322 -479 -482 -813 -673 -283 -163 -582 -268 -942
-330 -140 -25 -179 -27 -415 -28 -309 -1 -375 7 -720 82 -310 69 -673 234
-980 448 -193 134 -447 375 -598 569 -193 247 -383 602 -476 886 -147 453
-182 936 -100 1384 29 158 93 399 141 528 110 300 311 640 528 894 87 102 337
332 462 425 401 299 908 493 1403 538 224 20 538 8 780 -31 268 -43 573 -145
837 -281 103 -53 142 -69 161 -64 29 7 127 78 140 102 12 22 -1 32 -124 94
-305 155 -738 300 -1009 339 -234 34 -542 50 -675 35z"/>
<path d="M7433 7976 c-69 -23 -111 -54 -263 -200 -80 -76 -199 -187 -264 -245
-232 -207 -604 -559 -852 -806 -138 -137 -342 -338 -454 -445 -112 -107 -280
-273 -373 -367 -93 -95 -173 -173 -177 -173 -8 0 -95 76 -311 276 -268 247
-281 254 -440 234 -138 -16 -165 -27 -235 -93 -78 -72 -99 -121 -99 -228 0
-67 4 -83 37 -150 34 -68 56 -92 253 -279 119 -113 300 -285 403 -383 217
-206 250 -227 358 -227 63 0 81 5 136 33 35 19 91 53 124 77 65 48 719 686
1214 1185 173 175 376 370 450 433 205 176 885 855 912 911 33 67 31 185 -4
261 -30 67 -95 133 -163 168 -61 31 -185 40 -252 18z m160 -200 c51 -21 87
-70 87 -117 0 -22 -6 -52 -14 -67 -21 -39 -686 -693 -906 -891 -58 -52 -278
-266 -490 -475 -212 -210 -513 -505 -670 -657 -480 -465 -497 -479 -589 -479
l-56 0 -100 102 c-108 111 -269 267 -489 472 -201 188 -236 251 -185 332 26
43 43 52 112 60 103 12 147 -19 442 -306 210 -205 241 -230 282 -230 19 0 50
7 67 15 45 21 345 305 737 695 558 557 761 752 1114 1075 66 61 197 185 291
276 99 96 190 175 215 187 50 25 105 28 152 8z"/>
<path d="M3565 7055 c-101 -30 -200 -100 -247 -174 -16 -25 -38 -77 -50 -115
-18 -59 -20 -85 -15 -185 3 -74 13 -139 26 -181 39 -126 252 -756 286 -845 18
-49 41 -115 49 -146 42 -150 200 -283 362 -304 63 -9 464 -31 464 -26 0 14
-76 143 -96 162 -31 29 -89 37 -273 38 l-145 1 -46 49 c-35 36 -54 67 -73 122
-14 41 -68 197 -121 348 -52 151 -93 278 -90 282 3 5 33 9 67 10 34 1 72 4 84
7 24 7 108 120 98 131 -4 3 -74 7 -156 9 -139 3 -150 5 -160 24 -6 12 -33 84
-60 162 -55 159 -62 231 -30 301 25 55 109 131 159 144 26 7 146 10 334 9
l293 -3 0 -242 c0 -133 2 -244 5 -247 3 -2 40 -8 82 -12 l76 -7 8 48 c4 27 5
142 2 257 l-5 208 368 0 369 0 0 -78 c0 -43 3 -187 7 -319 l6 -240 -164 -6
c-90 -4 -167 -11 -172 -16 -10 -10 85 -126 109 -135 7 -3 58 -6 115 -7 l101
-2 62 60 c33 32 75 68 91 80 l30 21 -3 324 -4 323 304 -3 c353 -3 327 -9 424
109 l61 74 -1246 1 c-955 1 -1255 -1 -1286 -11z"/>
<path d="M6945 6441 c-76 -35 -135 -100 -164 -180 -25 -69 -33 -76 -78 -72
-27 2 -36 -3 -53 -31 -32 -53 -27 -75 20 -83 30 -5 40 -11 40 -26 0 -23 -84
-311 -147 -504 -43 -130 -79 -203 -117 -234 -22 -18 -139 -29 -436 -40 -183
-6 -255 -12 -258 -21 -3 -7 -26 -40 -52 -75 -26 -34 -50 -67 -54 -73 -5 -8 95
-10 356 -6 315 5 373 8 436 25 164 43 213 99 285 324 63 197 109 348 142 465
18 63 58 197 88 296 57 190 74 264 60 264 -4 0 -35 -13 -68 -29z"/>
<path d="M4101 4754 c-221 -59 -357 -256 -322 -466 15 -93 39 -146 92 -203
115 -124 265 -172 410 -129 139 41 225 114 287 242 63 131 53 269 -29 392 -59
88 -129 134 -250 164 -78 19 -117 19 -188 0z m172 -197 c177 -75 183 -315 10
-397 -57 -28 -153 -31 -199 -7 -41 22 -90 75 -108 119 -42 101 7 228 107 277
49 25 140 28 190 8z"/>
<path d="M6048 4761 c-62 -13 -165 -70 -218 -121 -158 -154 -158 -414 0 -580
76 -81 217 -136 315 -125 105 13 219 61 285 121 74 67 130 198 130 305 0 92
-63 223 -140 293 -96 86 -250 130 -372 107z m189 -214 c88 -46 135 -146 114
-243 -25 -108 -92 -163 -210 -171 -89 -6 -162 29 -205 100 -72 118 -29 259 98
319 49 23 153 20 203 -5z"/>
</g>
</svg>
